<svg width="36" height="36" viewBox="0 0 36 36" fill="none" xmlns="http://www.w3.org/2000/svg">
<path fill-rule="evenodd" clip-rule="evenodd" d="M23.9115 13.2857C23.9471 12.873 24.3104 12.5672 24.7231 12.6028C27.5351 12.8449 29.6662 13.7029 31.0686 15.4312C32.4542 17.1388 33.0138 19.5588 33.0138 22.665V22.86C33.0138 26.2867 32.3322 28.881 30.6135 30.5997C28.8947 32.3185 26.3004 33 22.8738 33H13.1087C9.68207 33 7.0878 32.3185 5.36904 30.5997C3.65029 28.881 2.96875 26.2867 2.96875 22.86V22.665C2.96875 19.5816 3.52071 17.1754 4.88435 15.4709C6.26533 13.7446 8.36468 12.8764 11.1341 12.6183C11.5466 12.5798 11.9121 12.883 11.9505 13.2954C11.989 13.7078 11.6858 14.0733 11.2734 14.1118C8.73282 14.3486 7.08967 15.1154 6.05565 16.4079C5.00429 17.7221 4.46875 19.7185 4.46875 22.665V22.86C4.46875 26.1383 5.12971 28.2391 6.42971 29.5391C7.7297 30.8391 9.83043 31.5 13.1087 31.5H22.8738C26.1521 31.5 28.2528 30.8391 29.5528 29.5391C30.8528 28.2391 31.5138 26.1383 31.5138 22.86V22.665C31.5138 19.6962 30.9708 17.6912 29.9039 16.3763C28.8538 15.0822 27.1824 14.3201 24.5944 14.0973C24.1817 14.0617 23.876 13.6984 23.9115 13.2857Z" fill="#292D32"/>
<path fill-rule="evenodd" clip-rule="evenodd" d="M17.9961 24.75C17.5819 24.75 17.2461 24.4142 17.2461 24L17.2461 4.68C17.2461 4.26579 17.5819 3.93 17.9961 3.93C18.4103 3.93 18.7461 4.26579 18.7461 4.68L18.7461 24C18.7461 24.4142 18.4103 24.75 17.9961 24.75Z" fill="#292D32"/>
<path fill-rule="evenodd" clip-rule="evenodd" d="M23.5538 8.55535C23.2609 8.84825 22.786 8.84825 22.4931 8.55535L17.9984 4.06068L13.5038 8.55535C13.2109 8.84825 12.736 8.84825 12.4431 8.55535C12.1502 8.26246 12.1502 7.78759 12.4431 7.49469L17.4681 2.46969C17.761 2.1768 18.2359 2.1768 18.5288 2.46969L23.5538 7.49469C23.8467 7.78759 23.8467 8.26246 23.5538 8.55535Z" fill="#292D32"/>
</svg>
