<svg width="14" height="14" viewBox="0 0 14 14" fill="none" xmlns="http://www.w3.org/2000/svg">
<path fill-rule="evenodd" clip-rule="evenodd" d="M7.00008 1.91699C4.1943 1.91699 1.91675 4.19454 1.91675 7.00033C1.91675 9.80611 4.1943 12.0837 7.00008 12.0837C9.80587 12.0837 12.0834 9.80611 12.0834 7.00033C12.0834 4.19454 9.80587 1.91699 7.00008 1.91699ZM0.416748 7.00033C0.416748 3.36611 3.36587 0.416992 7.00008 0.416992C10.6343 0.416992 13.5834 3.36611 13.5834 7.00033C13.5834 10.6345 10.6343 13.5837 7.00008 13.5837C3.36587 13.5837 0.416748 10.6345 0.416748 7.00033Z" fill="#4C4C4C"/>
<path fill-rule="evenodd" clip-rule="evenodd" d="M6.78406 3.63086C7.19827 3.63086 7.53406 3.96665 7.53406 4.38086V6.77253C7.53406 6.79482 7.54686 6.87154 7.60327 6.97046C7.65971 7.06943 7.71923 7.11947 7.73808 7.13064L7.74007 7.13182L7.74007 7.13182L9.5484 8.21099C9.90409 8.42326 10.0204 8.88368 9.80809 9.23937C9.59582 9.59506 9.1354 9.71133 8.77971 9.49906L6.97337 8.42108C6.97301 8.42086 6.97265 8.42065 6.97229 8.42043C6.67667 8.24493 6.45072 7.97738 6.30026 7.71355C6.14959 7.44934 6.03406 7.11773 6.03406 6.77253V4.38086C6.03406 3.96665 6.36984 3.63086 6.78406 3.63086Z" fill="#4C4C4C"/>
</svg>
