<svg width="25" height="24" viewBox="0 0 25 24" fill="none" xmlns="http://www.w3.org/2000/svg">
<path d="M9.38504 1.74997L15.905 1.74997C20.815 1.74997 22.915 3.84997 22.915 8.75997V8.88997C22.915 13.33 21.165 15.47 17.245 15.84C16.845 15.87 16.465 15.57 16.425 15.16C16.385 14.75 16.685 14.38 17.105 14.34C20.245 14.05 21.415 12.57 21.415 8.87997V8.74997C21.415 4.67997 19.975 3.23997 15.905 3.23997L9.38504 3.23997C5.31504 3.23997 3.87504 4.67997 3.87504 8.74997V8.87997C3.87504 12.59 5.06504 14.07 8.26504 14.34C8.67504 14.38 8.98504 14.74 8.94504 15.15C8.90504 15.56 8.55504 15.87 8.13504 15.83C4.15504 15.49 2.37504 13.34 2.37504 8.86997V8.73997C2.37504 3.84997 4.47504 1.74997 9.38504 1.74997Z" fill="#004BB8"/>
<path d="M12.645 8.24988C13.055 8.24988 13.395 8.58988 13.395 8.99988L13.395 20.3799C13.395 20.7899 13.055 21.1299 12.645 21.1299C12.235 21.1299 11.895 20.7899 11.895 20.3799L11.895 8.99988C11.895 8.58988 12.235 8.24988 12.645 8.24988Z" fill="#004BB8"/>
<path d="M9.29505 17.4001C9.48505 17.4001 9.67505 17.4701 9.82505 17.6201L12.6451 20.4401L15.4651 17.6201C15.7551 17.3301 16.2351 17.3301 16.5251 17.6201C16.8151 17.9101 16.8151 18.3901 16.5251 18.6801L13.1751 22.0301C12.8851 22.3201 12.4051 22.3201 12.1151 22.0301L8.76505 18.6801C8.47505 18.3901 8.47505 17.9101 8.76505 17.6201C8.90505 17.4701 9.10505 17.4001 9.29505 17.4001Z" fill="#004BB8"/>
</svg>
