<svg width="10" height="13" viewBox="0 0 10 13" fill="none" xmlns="http://www.w3.org/2000/svg">
<path d="M3.60311 0.148129C3.38533 0.210352 3.012 0.319241 2.77867 0.365908C2.20311 0.474796 0.538665 2.13924 0.414221 2.7148C0.367554 2.96369 0.24311 3.4148 0.149776 3.71035C-0.052446 4.34813 -0.052446 4.93924 0.165332 5.60813C0.258665 5.88813 0.367554 6.32369 0.414221 6.55702C0.460887 6.80591 0.911999 7.39702 1.42533 7.92591L2.35867 8.85924V10.4926V12.1104H2.76311C3.012 12.1104 3.46311 11.8615 3.92978 11.4726L4.692 10.8348L5.45422 11.4726C5.92089 11.8615 6.372 12.1104 6.62089 12.1104H7.02533V10.477V8.84368L7.95867 7.92591C8.48755 7.39702 8.90755 6.82146 8.96978 6.57257C9.01644 6.32369 9.12533 5.90369 9.20311 5.63924C9.40533 5.03257 9.40533 4.2548 9.20311 3.64813C9.12533 3.38369 9.01644 2.96369 8.96978 2.7148C8.84533 2.12368 7.212 0.490352 6.62089 0.365908C6.372 0.319241 5.952 0.210352 5.68755 0.132574C5.12755 -0.0540924 4.14755 -0.038537 3.60311 0.148129ZM5.31422 1.29924C5.43867 1.43924 5.64089 1.50146 5.85867 1.43924C6.29422 1.33035 6.86978 1.61035 6.86978 1.92146C6.86978 2.04591 7.05644 2.26369 7.30533 2.41924C7.86533 2.77702 7.95867 2.91702 7.95867 3.50813C7.95867 3.77257 8.03644 4.05257 8.11422 4.09924C8.34755 4.23924 8.30089 5.04813 8.03644 5.26591C7.89644 5.3748 7.84978 5.60813 7.89644 5.88813C7.95867 6.18369 7.912 6.38591 7.72533 6.52591C7.56978 6.65035 7.19644 7.00813 6.88533 7.31924C6.46533 7.7548 6.18533 7.91035 5.82755 7.91035C5.54755 7.91035 5.28311 7.97257 5.23644 8.06591C5.09644 8.29924 4.28755 8.25257 4.06978 7.98813C3.94533 7.84813 3.74311 7.78591 3.52533 7.84813C3.08978 7.95702 2.51422 7.67702 2.51422 7.36591C2.51422 7.24146 2.32755 7.02368 2.09422 6.86813C1.51867 6.51035 1.42533 6.37035 1.42533 5.77924C1.42533 5.5148 1.36311 5.2348 1.26978 5.18813C1.03644 5.04813 1.08311 4.23924 1.34755 4.02146C1.48755 3.89702 1.54978 3.6948 1.48755 3.47702C1.37867 3.05702 1.65867 2.46591 1.95422 2.46591C2.07867 2.46591 2.35867 2.21702 2.57644 1.92146C2.91867 1.48591 3.10533 1.37702 3.52533 1.37702C3.82089 1.37702 4.10089 1.29924 4.14755 1.22146C4.28755 0.98813 5.09644 1.0348 5.31422 1.29924Z" fill="#4C4C4C"/>
<path d="M3.38531 2.60545C2.66975 3.08767 2.35864 3.67878 2.35864 4.64323C2.35864 6.12101 3.2142 6.97656 4.69198 6.97656C6.16975 6.97656 7.02531 6.12101 7.02531 4.64323C7.02531 3.16545 6.16975 2.3099 4.69198 2.3099C4.11642 2.3099 3.69642 2.40323 3.38531 2.60545Z" fill="#4C4C4C"/>
</svg>
