<svg width="25" height="24" viewBox="0 0 25 24" fill="none" xmlns="http://www.w3.org/2000/svg">
<path d="M15.905 22.2498H9.385C4.475 22.2498 2.375 20.1498 2.375 15.2398V15.1098C2.375 10.6698 4.125 8.52978 8.045 8.15978C8.445 8.12978 8.825 8.42978 8.865 8.83978C8.905 9.24978 8.605 9.61978 8.185 9.65978C5.045 9.94978 3.875 11.4298 3.875 15.1198V15.2498C3.875 19.3198 5.315 20.7598 9.385 20.7598H15.905C19.975 20.7598 21.415 19.3198 21.415 15.2498V15.1198C21.415 11.4098 20.225 9.92978 17.025 9.65978C16.615 9.61978 16.305 9.25978 16.345 8.84978C16.385 8.43978 16.735 8.12978 17.155 8.16978C21.135 8.50978 22.915 10.6598 22.915 15.1298V15.2598C22.915 20.1498 20.815 22.2498 15.905 22.2498Z" fill="#004BB8"/>
<path d="M12.645 15.7501C12.235 15.7501 11.895 15.4101 11.895 15.0001V3.62012C11.895 3.21012 12.235 2.87012 12.645 2.87012C13.055 2.87012 13.395 3.21012 13.395 3.62012V15.0001C13.395 15.4101 13.055 15.7501 12.645 15.7501Z" fill="#004BB8"/>
<path d="M15.995 6.59994C15.805 6.59994 15.615 6.52994 15.465 6.37994L12.645 3.55994L9.82499 6.37994C9.53499 6.66994 9.05499 6.66994 8.76499 6.37994C8.47499 6.08994 8.47499 5.60994 8.76499 5.31994L12.115 1.96994C12.405 1.67994 12.885 1.67994 13.175 1.96994L16.525 5.31994C16.815 5.60994 16.815 6.08994 16.525 6.37994C16.385 6.52994 16.185 6.59994 15.995 6.59994Z" fill="#004BB8"/>
</svg>
