<svg width="24" height="24" viewBox="0 0 24 24" fill="none" xmlns="http://www.w3.org/2000/svg">
<path fill-rule="evenodd" clip-rule="evenodd" d="M6 2.76001C4.74764 2.76001 3.75 3.76074 3.75 4.97998V15.89C3.75 17.1093 4.74764 18.11 6 18.11H6.75C7.73267 18.11 8.69438 18.4946 9.39874 19.1981C9.39927 19.1986 9.3998 19.1991 9.40033 19.1996L11.1069 20.8862C11.5948 21.3675 12.3949 21.3678 12.8828 20.8865L14.5897 19.1996C14.5902 19.1991 14.5908 19.1985 14.5913 19.198C15.2948 18.4955 16.246 18.11 17.24 18.11H18C19.2507 18.11 20.25 17.1009 20.25 15.89V4.97998C20.25 3.76074 19.2524 2.76001 18 2.76001H6ZM2.25 4.97998C2.25 2.91923 3.93236 1.26001 6 1.26001H18C20.0676 1.26001 21.75 2.91923 21.75 4.97998V15.89C21.75 17.9391 20.0693 19.61 18 19.61H17.24C16.6347 19.61 16.0667 19.8439 15.6503 20.2603L15.6472 20.2634L13.9372 21.9534C12.8651 23.0118 11.1252 23.0121 10.0531 21.9537L8.3428 20.2634L8.33966 20.2603C7.92416 19.8448 7.34659 19.61 6.75 19.61H6C3.93236 19.61 2.25 17.9508 2.25 15.89V4.97998Z" fill="black"/>
<path fill-rule="evenodd" clip-rule="evenodd" d="M11.9999 6.09009C11.1273 6.09009 10.4199 6.79746 10.4199 7.67004C10.4199 8.54265 11.1273 9.25006 11.9999 9.25006C12.8725 9.25006 13.58 8.54265 13.58 7.67004C13.58 6.79746 12.8726 6.09009 11.9999 6.09009ZM8.91992 7.67004C8.91992 5.96898 10.2989 4.59009 11.9999 4.59009C13.701 4.59009 15.08 5.96898 15.08 7.67004C15.08 9.37108 13.701 10.7501 11.9999 10.7501C10.2989 10.7501 8.91992 9.37108 8.91992 7.67004Z" fill="black"/>
<path fill-rule="evenodd" clip-rule="evenodd" d="M7.25 15.6601C7.25 13.3099 9.52631 11.6501 12 11.6501C14.4737 11.6501 16.75 13.3099 16.75 15.6601C16.75 16.0743 16.4142 16.4101 16 16.4101C15.5858 16.4101 15.25 16.0743 15.25 15.6601C15.25 14.4103 13.9463 13.1501 12 13.1501C10.0537 13.1501 8.75 14.4103 8.75 15.6601C8.75 16.0743 8.41421 16.4101 8 16.4101C7.58579 16.4101 7.25 16.0743 7.25 15.6601Z" fill="black"/>
</svg>
