<svg width="36" height="36" viewBox="0 0 36 36" fill="none" xmlns="http://www.w3.org/2000/svg">
<path d="M31.9076 12.5867C32.2536 13.1864 31.7755 13.875 31.0832 13.875H4C3.44772 13.875 3 13.4273 3 12.875V9.63C3 5.97 5.97 3 9.63 3H13.11C15.555 3 16.32 3.795 17.295 5.1L19.395 7.89C19.86 8.505 19.92 8.58 20.79 8.58H24.975C27.9359 8.58 30.5245 10.1901 31.9076 12.5867Z" fill="#292D32"/>
<path d="M31.9734 16.1246C32.5243 16.1246 32.9715 16.5703 32.9734 17.1213L33 24.975C33 29.4 29.4 33 24.975 33H11.025C6.6 33 3 29.4 3 24.975V17.125C3 16.5727 3.44771 16.125 3.99999 16.125L31.9734 16.1246Z" fill="#292D32"/>
</svg>
