<svg width="40" height="40" viewBox="0 0 40 40" fill="none" xmlns="http://www.w3.org/2000/svg">
<rect width="40" height="40" rx="20" fill="#004BB8"/>
<path fill-rule="evenodd" clip-rule="evenodd" d="M21.6648 12.6605C21.6648 12.6604 21.6649 12.6605 21.6648 12.6605L26.3947 15.3904C26.4098 15.3991 26.4246 15.4084 26.4391 15.4181L26.4629 15.4342C26.8727 15.7105 27.2152 15.9415 27.4798 16.1511C27.7545 16.3686 27.9988 16.6035 28.1743 16.9075C28.3541 17.2189 28.4264 17.5413 28.4593 17.8764C28.4898 18.1874 28.4898 18.5601 28.4898 18.9866V24.0233C28.4898 24.4498 28.4898 24.8225 28.4593 25.1334C28.4264 25.4686 28.3541 25.791 28.1743 26.1024C27.9988 26.4064 27.7545 26.6413 27.4798 26.8588C27.2152 27.0683 26.8727 27.2994 26.4629 27.5757L26.4391 27.5917C26.4246 27.6015 26.4098 27.6108 26.3947 27.6195L21.6648 30.3494C21.6648 30.3495 21.6649 30.3494 21.6648 30.3494C21.1683 30.6361 20.563 30.7574 19.9998 30.7574C19.4365 30.7574 18.8313 30.6362 18.3349 30.3495C18.3348 30.3495 18.3349 30.3495 18.3349 30.3495L13.6049 27.6195C13.5897 27.6108 13.5749 27.6015 13.5604 27.5917L13.5366 27.5757C13.1269 27.2994 12.7843 27.0683 12.5197 26.8588C12.245 26.6413 12.0007 26.4064 11.8252 26.1024C11.6455 25.791 11.5731 25.4686 11.5402 25.1334C11.5097 24.8225 11.5097 24.4498 11.5098 24.0233V18.9866C11.5097 18.5601 11.5097 18.1874 11.5402 17.8764C11.5731 17.5413 11.6455 17.2189 11.8252 16.9075C12.0007 16.6035 12.245 16.3686 12.5197 16.1511C12.7843 15.9415 13.1269 15.7105 13.5367 15.4342L13.5604 15.4181C13.5749 15.4084 13.5897 15.3991 13.6049 15.3904L18.3347 12.6605C18.3347 12.6605 18.3348 12.6604 18.3347 12.6605C18.8312 12.3738 19.4365 12.2524 19.9998 12.2524C20.563 12.2524 21.1683 12.3738 21.6648 12.6605ZM19.9998 13.7524C19.6281 13.7524 19.2983 13.8361 19.0848 13.9594L14.3774 16.6764C13.9497 16.9649 13.6616 17.1602 13.451 17.3269C13.242 17.4925 13.1638 17.5889 13.1243 17.6574C13.0891 17.7185 13.0539 17.8098 13.0331 18.0228C13.0106 18.2519 13.0098 18.5504 13.0098 19.0199V23.9899C13.0098 24.4595 13.0106 24.758 13.0331 24.9871C13.0539 25.2001 13.0891 25.2914 13.1243 25.3525C13.1638 25.421 13.242 25.5174 13.451 25.6829C13.6616 25.8497 13.9497 26.045 14.3774 26.3335L19.0847 29.0504C19.2982 29.1737 19.6281 29.2574 19.9998 29.2574C20.3715 29.2574 20.7012 29.1737 20.9147 29.0505L25.6221 26.3335C26.0498 26.045 26.3379 25.8497 26.5485 25.6829C26.7575 25.5174 26.8357 25.421 26.8752 25.3525C26.9105 25.2914 26.9456 25.2001 26.9665 24.9871C26.9889 24.758 26.9898 24.4595 26.9898 23.9899V19.0199C26.9898 18.5504 26.9889 18.2519 26.9665 18.0228C26.9456 17.8098 26.9105 17.7185 26.8752 17.6574C26.8357 17.5889 26.7575 17.4925 26.5485 17.3269C26.3379 17.1602 26.0498 16.9649 25.6221 16.6764L20.9149 13.9595C20.7014 13.8362 20.3715 13.7524 19.9998 13.7524Z" fill="#FBFBFB"/>
<path fill-rule="evenodd" clip-rule="evenodd" d="M14.7197 10.2197C15.4099 9.52941 16.3844 9.25 17.5 9.25H22.5C23.6156 9.25 24.5901 9.52941 25.2803 10.2197C25.9706 10.9099 26.25 11.8844 26.25 13V15.63C26.25 16.0442 25.9142 16.38 25.5 16.38C25.0858 16.38 24.75 16.0442 24.75 15.63V13C24.75 12.1156 24.5294 11.5901 24.2197 11.2803C23.9099 10.9706 23.3844 10.75 22.5 10.75H17.5C16.6156 10.75 16.0901 10.9706 15.7803 11.2803C15.4706 11.5901 15.25 12.1156 15.25 13V15.56C15.25 15.9742 14.9142 16.31 14.5 16.31C14.0858 16.31 13.75 15.9742 13.75 15.56V13C13.75 11.8844 14.0294 10.9099 14.7197 10.2197Z" fill="#FBFBFB"/>
<path fill-rule="evenodd" clip-rule="evenodd" d="M19.9866 19.4014L19.4238 20.2803C19.3169 20.451 19.1695 20.5856 19.0435 20.6782C18.915 20.7726 18.7372 20.8757 18.5336 20.927L17.5202 21.1853L18.1868 21.9912C18.3167 22.1475 18.3992 22.3317 18.4482 22.4806C18.4972 22.6295 18.5406 22.8283 18.5282 23.0342L18.4684 24.0806L19.441 23.6936C19.4408 23.6937 19.4412 23.6935 19.441 23.6936C19.6318 23.6174 19.8341 23.595 19.9945 23.595C20.1549 23.595 20.3566 23.6171 20.5474 23.6934C20.5472 23.6933 20.5476 23.6934 20.5474 23.6934L21.5206 24.0806L21.4608 23.0343C21.4483 22.8267 21.4925 22.6293 21.5418 22.4815C21.5924 22.3295 21.672 22.1596 21.7851 22.0127C21.7904 22.0057 21.796 21.9987 21.8016 21.9919L22.4688 21.1853L21.4463 20.9247C21.2582 20.8745 21.0884 20.7793 20.9593 20.6865C20.83 20.5935 20.6801 20.459 20.5686 20.2855L19.9993 19.3965C19.9978 19.3942 19.9963 19.3919 19.9948 19.3898C19.9921 19.3935 19.9894 19.3973 19.9866 19.4014ZM19.9983 17.835C20.5492 17.835 20.9872 18.1629 21.2589 18.582L21.2611 18.5855L21.8183 19.4555C21.8191 19.4562 21.82 19.457 21.821 19.4578C21.825 19.4611 21.8296 19.4648 21.8347 19.4684C21.8399 19.4721 21.8449 19.4755 21.8495 19.4783C21.8508 19.4791 21.852 19.4798 21.8531 19.4804L22.8441 19.733C22.844 19.733 22.8442 19.7331 22.8441 19.733C23.3339 19.8575 23.7882 20.1736 23.9585 20.7027C24.1278 21.229 23.9464 21.749 23.6295 22.1355L23.6274 22.138L22.9782 22.9229C22.9764 22.9266 22.9742 22.9313 22.9719 22.9369C22.9693 22.943 22.9669 22.9494 22.9648 22.9559C22.9627 22.9622 22.961 22.968 22.9598 22.9728L23.0181 23.9939C23.0181 23.9945 23.0182 23.9951 23.0182 23.9957C23.0487 24.498 22.8884 25.0265 22.4389 25.3515C21.9893 25.6766 21.4373 25.6627 20.9716 25.4766C20.9714 25.4765 20.9717 25.4766 20.9716 25.4766L20.0149 25.0958C20.014 25.0958 20.0131 25.0957 20.0122 25.0956C20.0069 25.0952 20.0009 25.095 19.9945 25.095C19.9881 25.095 19.9821 25.0952 19.9769 25.0956C19.9759 25.0957 19.975 25.0958 19.9742 25.0958L19.0181 25.4763C19.0179 25.4764 19.0182 25.4763 19.0181 25.4763C18.5467 25.6647 17.994 25.6717 17.5474 25.3458C17.103 25.0215 16.9401 24.4968 16.9708 23.9954L17.0294 22.9708C17.0292 22.9698 17.0289 22.9687 17.0286 22.9675C17.0272 22.962 17.0255 22.9558 17.0233 22.9493C17.0212 22.9428 17.0189 22.9367 17.0167 22.9315C17.0163 22.9304 17.0159 22.9294 17.0155 22.9285L16.3596 22.1355C16.0427 21.7491 15.8612 21.229 16.0306 20.7027C16.2009 20.1736 16.6549 19.8576 17.1446 19.7331M18.1408 19.4792C18.1371 19.4815 18.1344 19.4829 18.1332 19.4835C18.1318 19.4842 18.1334 19.4833 18.1381 19.4815C18.1416 19.4802 18.1484 19.4776 18.1584 19.4748L18.1508 19.4869C18.1534 19.4827 18.1561 19.4782 18.1584 19.4748C18.1582 19.4751 18.1585 19.4746 18.1584 19.4748C18.1602 19.4743 18.1623 19.4737 18.1643 19.4732L18.1584 19.4748C18.1639 19.4666 18.1685 19.4609 18.171 19.4579C18.1746 19.4533 18.1763 19.4517 18.1754 19.4527C18.1746 19.4535 18.1723 19.4557 18.1686 19.4589C18.1686 19.4589 18.1686 19.4589 18.1686 19.4589L18.1584 19.4748L18.1408 19.4792Z" fill="#FBFBFB"/>
</svg>
