<svg width="14" height="14" viewBox="0 0 14 14" fill="none" xmlns="http://www.w3.org/2000/svg">
<path d="M5.34337 6.34116C5.28503 6.33533 5.21503 6.33533 5.15087 6.34116C3.76253 6.29449 2.66003 5.15699 2.66003 3.75699C2.66003 2.32783 3.81503 1.16699 5.25003 1.16699C6.6792 1.16699 7.84003 2.32783 7.84003 3.75699C7.8342 5.15699 6.7317 6.29449 5.34337 6.34116Z" stroke="#4D4D4D" stroke-width="1.5" stroke-linecap="round" stroke-linejoin="round"/>
<path d="M9.57254 2.33301C10.7042 2.33301 11.6142 3.24884 11.6142 4.37467C11.6142 5.47717 10.7392 6.37551 9.64837 6.41634C9.6017 6.41051 9.5492 6.41051 9.4967 6.41634" stroke="#4D4D4D" stroke-width="1.5" stroke-linecap="round" stroke-linejoin="round"/>
<path d="M2.42667 8.49301C1.015 9.43801 1.015 10.978 2.42667 11.9172C4.03084 12.9905 6.66167 12.9905 8.26584 11.9172C9.6775 10.9722 9.6775 9.43217 8.26584 8.49301C6.6675 7.42551 4.03667 7.42551 2.42667 8.49301Z" stroke="#4D4D4D" stroke-width="1.5" stroke-linecap="round" stroke-linejoin="round"/>
<path d="M10.6984 11.667C11.1184 11.5795 11.515 11.4103 11.8417 11.1595C12.7517 10.477 12.7517 9.35116 11.8417 8.66866C11.5209 8.42366 11.13 8.26033 10.7159 8.16699" stroke="#4D4D4D" stroke-width="1.5" stroke-linecap="round" stroke-linejoin="round"/>
</svg>
